<svg width="32" height="32" viewBox="0 0 32 32" fill="none" xmlns="http://www.w3.org/2000/svg">
<g clip-path="url(#clip0)">
<path d="M15.9998 0C7.17752 0 0 7.17737 0 15.9995C0 24.8223 7.17752 32 15.9998 32C24.822 32 31.9994 24.8222 31.9994 15.9995C31.9994 7.17737 24.822 0 15.9998 0ZM15.9998 29.7064C8.4422 29.7064 2.29358 23.5575 2.29358 15.9995C2.29358 8.44205 8.4422 2.29358 15.9998 2.29358C23.5573 2.29358 29.7058 8.44205 29.7058 15.9995C29.7058 23.5575 23.5573 29.7064 15.9998 29.7064Z" fill="#FE8128"/>
<path d="M24.2266 15.732H16.7076V7.513C16.7076 6.87967 16.1943 6.36621 15.5609 6.36621C14.9275 6.36621 14.4141 6.87967 14.4141 7.513V16.8787C14.4141 17.5121 14.9275 18.0255 15.5609 18.0255H24.2266C24.8601 18.0255 25.3734 17.5121 25.3734 16.8787C25.3734 16.2454 24.8599 15.732 24.2266 15.732Z" fill="#FE8128"/>
</g>
<defs>
<clipPath id="clip0">
<rect width="32" height="32" fill="white"/>
</clipPath>
</defs>
</svg>
