<svg width="26" height="34" viewBox="0 0 26 34" fill="none" xmlns="http://www.w3.org/2000/svg">
<path d="M12.9995 0C5.83144 0 0 5.83221 0 13.001C0 18.1234 2.14456 23.3049 6.20186 27.9855C9.23225 31.4814 12.2354 33.462 12.3619 33.5447C12.5555 33.6713 12.7776 33.7345 12.9996 33.7345C13.2215 33.7345 13.4435 33.6713 13.6373 33.5447C13.7636 33.462 16.7673 31.4814 19.7977 27.9856C23.8553 23.3049 26 18.1234 26 13.001C25.9998 5.83221 20.1678 0 12.9995 0ZM12.9995 31.1383C10.6086 29.3567 2.33071 22.5001 2.33071 13.001C2.33071 7.11737 7.11659 2.33071 12.9995 2.33071C18.8828 2.33071 23.6691 7.11737 23.6691 13.001C23.6691 22.5001 15.3905 29.3567 12.9995 31.1383Z" fill="#FE8128"/>
<path d="M12.9994 7.83838C10.1544 7.83838 7.83984 10.1531 7.83984 12.9984C7.83984 15.843 10.1544 18.1572 12.9994 18.1572C15.8444 18.1572 18.1588 15.843 18.1588 12.9984C18.1588 10.1532 15.8443 7.83838 12.9994 7.83838ZM12.9994 15.8265C11.4395 15.8265 10.1706 14.5578 10.1706 12.9984C10.1706 11.4382 11.4395 10.1691 12.9994 10.1691C14.5591 10.1691 15.8281 11.4382 15.8281 12.9984C15.8281 14.5578 14.5591 15.8265 12.9994 15.8265Z" fill="#FE8128"/>
</svg>
