<svg width="34" height="35" viewBox="0 0 34 35" fill="none" xmlns="http://www.w3.org/2000/svg">
<path d="M29.0811 4.52948C26.1601 1.6084 22.2761 -0.000163377 18.1453 1.24459e-08C17.4684 1.24459e-08 16.9199 0.548661 16.9199 1.22542C16.9199 1.90218 17.4686 2.45084 18.1453 2.45084C21.6216 2.45067 24.8899 3.80435 27.3481 6.26254C29.8064 8.72073 31.1601 11.9892 31.1599 15.4656C31.1599 16.1424 31.7084 16.691 32.3854 16.691C33.0621 16.691 33.6108 16.1424 33.6108 15.4658C33.6109 11.3345 32.0024 7.45055 29.0811 4.52948Z" fill="#FE8128"/>
<path d="M24.0403 15.4657C24.0403 16.1425 24.5889 16.6911 25.2658 16.691C25.9426 16.691 26.4911 16.1423 26.4911 15.4655C26.4908 10.8645 22.7469 7.12077 18.1455 7.12012C18.1453 7.12012 18.1455 7.12012 18.1453 7.12012C17.4686 7.12012 16.9201 7.66861 16.9199 8.34537C16.9199 9.02213 17.4684 9.57079 18.1452 9.57096C21.3955 9.57145 24.0399 12.2157 24.0403 15.4657Z" fill="#FE8128"/>
<path d="M21.3306 21.7138C19.4628 21.6171 18.5112 23.0062 18.0548 23.6735C17.6727 24.2321 17.8158 24.9947 18.3744 25.3768C18.9331 25.759 19.6956 25.6159 20.0778 25.0572C20.6169 24.2689 20.8612 24.1449 21.1926 24.1606C22.2531 24.2852 26.4302 27.3462 26.8484 28.3033C26.9533 28.5851 26.9494 28.8614 26.8368 29.1975C26.3983 30.4991 25.6724 31.4137 24.7371 31.8425C23.8486 32.2498 22.7593 32.2129 21.5876 31.7361C17.2126 29.9529 13.3902 27.4643 10.227 24.3393C10.2257 24.338 10.2244 24.3368 10.2233 24.3355C7.10482 21.1754 4.62081 17.358 2.84052 12.9896C2.36359 11.817 2.32666 10.7275 2.73399 9.83916C3.16272 8.90392 4.07738 8.17798 5.37779 7.73993C5.71503 7.62687 5.99083 7.62327 6.27006 7.72719C7.23063 8.14694 10.2914 12.3238 10.4149 13.3725C10.4326 13.7162 10.3076 13.9603 9.51987 14.4985C8.96108 14.8802 8.81746 15.6427 9.1993 16.2015C9.58098 16.7603 10.3434 16.9038 10.9023 16.5221C11.5699 16.0662 12.9587 15.1173 12.8623 13.243C12.7561 11.2853 8.94785 6.10081 7.12818 5.43173C6.31891 5.13012 5.46766 5.12489 4.59712 5.41703C2.63841 6.07663 1.22379 7.25271 0.50618 8.81798C-0.189858 10.3365 -0.167801 12.0983 0.570718 13.9139C2.476 18.5888 5.14169 22.6793 8.49362 26.072C8.50179 26.0804 8.51013 26.0885 8.51862 26.0965C11.9089 29.4423 15.9947 32.1031 20.6633 34.0061C21.5983 34.3863 22.519 34.5766 23.3995 34.5766C24.2285 34.5766 25.0222 34.408 25.7585 34.0704C27.3239 33.353 28.4998 31.9385 29.1599 29.9785C29.4514 29.1096 29.4467 28.2587 29.1473 27.4532C28.476 25.6286 23.2915 21.8203 21.3306 21.7138Z" fill="#FE8128"/>
</svg>
