<svg version="1.1" id="Layer_1" xmlns="http://www.w3.org/2000/svg" xmlns:xlink="http://www.w3.org/1999/xlink" x="0px" y="0px"
	 viewBox="0 0 499.016 499.016" style="enable-background:new 0 0 499.016 499.016;" xml:space="preserve">
<g>
	<g>
		<path d="M247.544,9.912c-56.328,0-98.16,45.824-98.16,102.144V214.06c0,6.568,4.636,11.904,11.204,11.904
			c6.56,0,12.3-5.336,12.3-11.904V111.864c0-43.196,33.424-78.34,76.62-78.34c43.192,0,76.62,35.144,76.62,78.34V214.06
			c0,6.568,5.228,11.904,11.784,11.904c6.564,0,11.788-5.336,11.788-11.904V112.056C349.704,55.736,303.868,9.912,247.544,9.912z"/>
	</g>
</g>
<g>
	<g>
		<path d="M453.896,166.228c-0.332-1.876-1.608-3.252-3.516-3.252H48.54c-1.908,0-3.544,1.376-3.872,3.252L0,429.676v34.112
			c0,13.96,9.832,25.316,23.792,25.316h451.332c13.96,0,23.892-11.356,23.892-25.316v-33.999v-0.113L453.896,166.228z
			 M159.3,241.564c-15.164,0-27.504-12.336-27.504-27.504c0-11.492,7.248-21.872,18.044-25.832c0.424-0.156,0.884-0.928,1.336-0.928
			l16.084-0.744c0.004,0,0.008,0,0.012,0c0.452,0,0.904,0.768,1.328,0.92c10.888,3.912,18.208,14.664,18.208,26.24
			C186.808,228.876,174.468,241.564,159.3,241.564z M339.836,241.564c-15.168,0-27.508-12.336-27.508-27.504
			c0-11.492,7.248-21.872,18.044-25.832c0.424-0.156,0.884-0.24,1.34-0.24l16.084-0.052c0.516-0.02,0.912,0.076,1.34,0.228
			c10.888,3.916,18.208,14.316,18.208,25.896C367.34,229.228,355,241.564,339.836,241.564z"/>
	</g>
</g>
</svg>
