<svg xmlns="http://www.w3.org/2000/svg" xml:space="preserve" fill="#f88b42" style="enable-background:new 0 0 461.941 461.941" viewBox="0 0 461.941 461.941"><path d="M427.799 216.829c-4.272 4.273-9.953 6.626-15.996 6.626s-11.724-2.354-15.996-6.625c-11.827-11.828-27.554-18.342-44.28-18.343h-.001c-16.726 0-32.453 6.515-44.281 18.342-8.82 8.821-23.174 8.819-31.992.001-11.827-11.828-27.554-18.342-44.28-18.343h-.001c-16.726 0-32.453 6.515-44.281 18.342-8.82 8.821-23.174 8.82-31.992 0-24.417-24.417-64.146-24.417-88.562 0-8.82 8.82-23.172 8.82-31.994 0-7.811-7.811-20.474-7.811-28.284 0s-7.81 20.474.001 28.284c24.416 24.416 64.144 24.416 88.562 0 8.82-8.82 23.171-8.82 31.993 0 24.416 24.416 64.145 24.416 88.561 0 4.273-4.273 9.954-6.626 15.997-6.626s11.724 2.354 15.997 6.626c24.416 24.416 64.145 24.416 88.561 0 4.273-4.273 9.954-6.626 15.997-6.626s11.724 2.354 15.997 6.626c11.828 11.828 27.554 18.342 44.28 18.342 16.728 0 32.453-6.514 44.281-18.342 7.811-7.811 7.81-20.474-.001-28.284-7.813-7.811-20.476-7.811-28.286 0z"/></svg>