<svg version="1.1" id="Layer_1" xmlns="http://www.w3.org/2000/svg" xmlns:xlink="http://www.w3.org/1999/xlink" x="0px" y="0px"
	 viewBox="0 0 511.999 511.999" style="enable-background:new 0 0 511.999 511.999;" xml:space="preserve">
<g>
	<g>
		<path d="M434.432,20.158H341.69c-4.329,0-7.838,3.509-7.838,7.838c0,4.329,3.509,7.838,7.838,7.838h89.085v7.315H229.573v-7.315
			h75.522v-0.001c4.329,0,7.838-3.509,7.838-7.838c0-4.329-3.509-7.838-7.838-7.838h-75.533c-0.056-5.367-2.159-10.401-5.966-14.209
			C219.741,2.113,214.627,0,209.197,0c-4.724,0-9.067,1.63-12.526,4.338C193.095,1.535,188.724,0,184.116,0
			c-4.724,0-9.067,1.63-12.526,4.338C168.015,1.535,163.644,0,159.036,0c-4.724,0-9.066,1.63-12.526,4.338
			C142.936,1.535,138.565,0,133.957,0c-11.162,0-20.247,9.024-20.366,20.158H81.227c-6.626,0-12.017,5.391-12.017,12.017v4.659
			c-0.651,1.194-1.12,2.512-1.335,3.933L65.688,55.23c-0.482,3.174,0.303,6.346,2.208,8.931c1.904,2.584,4.702,4.272,7.876,4.751
			l37.808,5.718v25.146c0,4.328,3.509,7.838,7.838,7.838c4.329,0,7.838-3.509,7.838-7.838V77l9.405,1.422v122.037h-9.405v-62.541
			c0-4.328-3.509-7.838-7.838-7.838c-4.329,0-7.838,3.509-7.838,7.838v62.541H75.762c-2.189,0-4.278,0.915-5.762,2.524
			s-2.227,3.766-2.05,5.947L88.16,458.024c0,0.006,0,0.014,0,0.02l3.794,46.752c0.289,3.561,2.928,6.405,6.317,7.061
			c0.485,0.094,0.984,0.142,1.494,0.142h181.325c4.083,0,7.482-3.135,7.812-7.204l3.793-46.752c0-0.002,0-0.003,0-0.004
			l4.074-50.214c0.35-4.314-2.863-8.096-7.178-8.446c-4.305-0.349-8.096,2.864-8.446,7.178l-3.363,41.457
			c-3.8-2.425-6.912-7.452-10.941-14.341c-6.185-10.575-13.884-23.738-29.995-23.738c-16.105,0-23.801,13.16-29.985,23.736
			c-5.791,9.904-9.683,15.973-16.454,15.973c-6.769,0-10.662-6.069-16.453-15.97c-6.185-10.576-13.884-23.739-29.996-23.739
			c-16.106,0-23.802,13.161-29.986,23.736c-4.015,6.866-7.119,11.885-10.9,14.32l-7.62-93.92h26.674
			c13.005,24.444,38.736,41.131,68.303,41.131c29.566,0,55.297-16.687,68.303-41.131h26.674l-0.808,9.959
			c-0.35,4.314,2.863,8.096,7.178,8.446c4.285,0.348,8.096-2.863,8.446-7.178l12.686-156.369c0.177-2.182-0.566-4.337-2.05-5.947
			c-1.484-1.609-3.573-2.524-5.762-2.524h-75.522V92.171l195.434,29.556c0.609,0.092,1.217,0.138,1.821,0.138
			c2.546,0,5.018-0.809,7.105-2.347c2.584-1.905,4.272-4.702,4.751-7.875l2.189-14.468c0.99-6.552-3.534-12.687-10.086-13.678
			L267.625,58.823h166.806c6.626,0,12.017-5.391,12.017-12.017v-14.63C446.449,25.549,441.057,20.158,434.432,20.158z
			 M127.504,441.585c5.791-9.904,9.683-15.973,16.454-15.973c6.776,0,10.672,6.072,16.464,15.978
			c6.184,10.573,13.879,23.732,29.984,23.732c16.106,0,23.802-13.162,29.986-23.736c5.79-9.904,9.683-15.973,16.453-15.973
			c6.776,0,10.672,6.072,16.464,15.977c5.235,8.951,11.555,19.754,23.138,22.859l-2.586,31.878H106.994l-2.587-31.888
			C115.966,461.315,122.276,450.526,127.504,441.585z M204.495,20.378c-0.001-2.593,2.109-4.703,4.702-4.703
			c1.258,0,2.446,0.492,3.33,1.372c0.885,0.885,1.373,2.069,1.373,3.331v30.32l-9.405-1.422V20.378z M179.414,20.378
			c0-2.593,2.11-4.703,4.702-4.703c1.258,0,2.446,0.492,3.33,1.372c0.885,0.885,1.373,2.069,1.373,3.331v26.527l-9.405-1.422V20.378
			z M154.334,20.378c0-2.593,2.11-4.703,4.702-4.703c1.258,0,2.446,0.492,3.33,1.372c0.885,0.885,1.373,2.069,1.373,3.331v22.734
			l-9.405-1.422V20.378z M129.255,20.378L129.255,20.378c0-2.593,2.11-4.702,4.702-4.702c1.258,0,2.446,0.492,3.33,1.372
			c0.885,0.885,1.373,2.069,1.373,3.331V39.32l-9.405-1.422V20.378z M115.89,338.398H94.182l-3.327-41.036h25.037
			c-1.802,6.54-2.786,13.415-2.786,20.52C113.106,324.984,114.088,331.859,115.89,338.398z M190.429,379.529
			c-33.993,0-61.648-27.655-61.648-61.648c0-33.994,27.655-61.649,61.648-61.649s61.648,27.655,61.648,61.649
			C252.077,351.874,224.422,379.529,190.429,379.529z M286.676,338.398h-21.708c1.802-6.539,2.785-13.413,2.785-20.517
			c-0.001-7.104-0.983-13.981-2.786-20.52h25.036L286.676,338.398z M296.591,216.134l-5.313,65.553h-32.549
			c-13.005-24.442-38.735-41.128-68.301-41.128c-29.565,0-55.295,16.686-68.301,41.128H89.58l-5.318-65.553h37.136
			c0.007,0,0.014,0.001,0.02,0.001c0.006,0,0.014-0.001,0.02-0.001h25.039c0.007,0,0.014,0.001,0.02,0.001
			c0.006,0,0.014-0.001,0.02-0.001h25.039c0.007,0,0.014,0.001,0.02,0.001s0.014-0.001,0.02-0.001h25.039
			c0.007,0,0.014,0.001,0.02,0.001c0.006,0,0.014-0.001,0.02-0.001h25.039c0.007,0,0.014,0.001,0.02,0.001s0.014-0.001,0.02-0.001
			H296.591z M154.334,200.458V80.793l9.405,1.422v118.244H154.334z M179.414,200.458V84.586l9.405,1.422v114.451H179.414z
			 M204.494,200.458V88.379l9.405,1.422v110.658H204.494z M424.827,98.449l-1.094,7.233L81.732,53.96l1.094-7.233L424.827,98.449z"
			/>
	</g>
</g>
</svg>
